<svg display="none" xmlns="http://www.w3.org/2000/svg">
    <symbol id="search" viewBox="0 0 16 16">
        <path d="M15.7372 14.4753L12.7159 11.463C13.6907 10.2211 14.2196 8.68756 14.2176 7.10882C14.2176 5.70283 13.8007 4.32841 13.0196 3.15937C12.2385 1.99033 11.1282 1.07918 9.82925 0.54113C8.53028 0.00308012 7.10094 -0.137698 5.72196 0.136597C4.34299 0.410893 3.07631 1.08794 2.08213 2.08213C1.08794 3.07631 0.410893 4.34299 0.136597 5.72196C-0.137698 7.10094 0.00308012 8.53028 0.54113 9.82925C1.07918 11.1282 1.99033 12.2385 3.15937 13.0196C4.32841 13.8007 5.70283 14.2176 7.10882 14.2176C8.68756 14.2196 10.2211 13.6907 11.463 12.7159L14.4753 15.7372C14.5579 15.8204 14.6562 15.8865 14.7645 15.9317C14.8728 15.9768 14.9889 16 15.1062 16C15.2236 16 15.3397 15.9768 15.448 15.9317C15.5563 15.8865 15.6545 15.8204 15.7372 15.7372C15.8204 15.6545 15.8865 15.5563 15.9317 15.448C15.9768 15.3397 16 15.2236 16 15.1062C16 14.9889 15.9768 14.8728 15.9317 14.7645C15.8865 14.6562 15.8204 14.5579 15.7372 14.4753ZM1.77721 7.10882C1.77721 6.05433 2.0899 5.02352 2.67575 4.14674C3.26159 3.26996 4.09428 2.58659 5.0685 2.18305C6.04273 1.77952 7.11474 1.67393 8.14897 1.87965C9.1832 2.08538 10.1332 2.59316 10.8788 3.3388C11.6245 4.08444 12.1323 5.03444 12.338 6.06868C12.5437 7.10291 12.4381 8.17492 12.0346 9.14914C11.6311 10.1234 10.9477 10.9561 10.0709 11.5419C9.19413 12.1277 8.16332 12.4404 7.10882 12.4404C5.69479 12.4404 4.33867 11.8787 3.3388 10.8788C2.33893 9.87897 1.77721 8.52285 1.77721 7.10882Z" fill="#858585"/>
    </symbol>

    <symbol id="plus" viewBox="0 0 11 12">
        <path d="M5.5 0.5C4.99374 0.5 4.5834 0.910337 4.5834 1.4166V5.0834H0.916598C0.410337 5.0834 0 5.49374 0 6C0 6.50626 0.410337 6.9166 0.916598 6.9166H4.5834V10.5834C4.5834 11.0897 4.99374 11.5 5.5 11.5C6.00626 11.5 6.4166 11.0897 6.4166 10.5834V6.9166H10.0834C10.5897 6.9166 11 6.50626 11 6C11 5.49374 10.5897 5.0834 10.0834 5.0834H6.4166V1.4166C6.4166 0.910337 6.00626 0.5 5.5 0.5Z" fill="#2A3548"/>
    </symbol>

    <symbol id="search-white" viewBox="0 0 16 16">
        <path d="M15.7372 14.4753L12.7159 11.463C13.6907 10.2211 14.2196 8.68756 14.2176 7.10882C14.2176 5.70283 13.8007 4.32841 13.0196 3.15937C12.2385 1.99033 11.1282 1.07918 9.82925 0.54113C8.53028 0.00308012 7.10094 -0.137698 5.72196 0.136597C4.34299 0.410893 3.07631 1.08794 2.08213 2.08213C1.08794 3.07631 0.410893 4.34299 0.136597 5.72196C-0.137698 7.10094 0.00308012 8.53028 0.54113 9.82925C1.07918 11.1282 1.99033 12.2385 3.15937 13.0196C4.32841 13.8007 5.70283 14.2176 7.10882 14.2176C8.68756 14.2196 10.2211 13.6907 11.463 12.7159L14.4753 15.7372C14.5579 15.8204 14.6562 15.8865 14.7645 15.9317C14.8728 15.9768 14.9889 16 15.1062 16C15.2236 16 15.3397 15.9768 15.448 15.9317C15.5563 15.8865 15.6545 15.8204 15.7372 15.7372C15.8204 15.6545 15.8865 15.5563 15.9317 15.448C15.9768 15.3397 16 15.2236 16 15.1062C16 14.9889 15.9768 14.8728 15.9317 14.7645C15.8865 14.6562 15.8204 14.5579 15.7372 14.4753V14.4753ZM1.77721 7.10882C1.77721 6.05433 2.0899 5.02352 2.67575 4.14674C3.26159 3.26996 4.09428 2.58659 5.0685 2.18305C6.04273 1.77952 7.11474 1.67393 8.14897 1.87965C9.1832 2.08538 10.1332 2.59316 10.8788 3.3388C11.6245 4.08444 12.1323 5.03444 12.338 6.06868C12.5437 7.10291 12.4381 8.17492 12.0346 9.14914C11.6311 10.1234 10.9477 10.9561 10.0709 11.5419C9.19413 12.1277 8.16332 12.4404 7.10882 12.4404C5.69479 12.4404 4.33867 11.8787 3.3388 10.8788C2.33893 9.87897 1.77721 8.52285 1.77721 7.10882Z" fill="white"/>
    </symbol>

    <symbol id="arrow-prev" viewBox="0 0 5 8">
        <path d="M0.6375 4.44991C0.549567 4.36208 0.500109 4.24294 0.5 4.11866V3.88116C0.50144 3.75715 0.550698 3.63848 0.6375 3.54991L3.85 0.343658C3.90868 0.284497 3.98855 0.251221 4.07188 0.251221C4.1552 0.251221 4.23507 0.284497 4.29375 0.343658L4.7375 0.787408C4.79629 0.84501 4.82942 0.923852 4.82942 1.00616C4.82942 1.08846 4.79629 1.16731 4.7375 1.22491L1.95625 3.99991L4.7375 6.77491C4.79666 6.83358 4.82994 6.91346 4.82994 6.99678C4.82994 7.08011 4.79666 7.15998 4.7375 7.21866L4.29375 7.65616C4.23507 7.71532 4.1552 7.74859 4.07188 7.74859C3.98855 7.74859 3.90868 7.71532 3.85 7.65616L0.6375 4.44991Z"/>
        <path d="M0.6375 4.44991C0.549567 4.36208 0.500109 4.24294 0.5 4.11866V3.88116C0.50144 3.75715 0.550698 3.63848 0.6375 3.54991L3.85 0.343658C3.90868 0.284497 3.98855 0.251221 4.07188 0.251221C4.1552 0.251221 4.23507 0.284497 4.29375 0.343658L4.7375 0.787408C4.79629 0.84501 4.82942 0.923852 4.82942 1.00616C4.82942 1.08846 4.79629 1.16731 4.7375 1.22491L1.95625 3.99991L4.7375 6.77491C4.79666 6.83358 4.82994 6.91346 4.82994 6.99678C4.82994 7.08011 4.79666 7.15998 4.7375 7.21866L4.29375 7.65616C4.23507 7.71532 4.1552 7.74859 4.07188 7.74859C3.98855 7.74859 3.90868 7.71532 3.85 7.65616L0.6375 4.44991Z" fill="black" fill-opacity="0.2"/>
    </symbol>

    <symbol id="arrow-next" viewBox="0 0 5 8">
        <path d="M4.3625 4.44991C4.45043 4.36208 4.49989 4.24294 4.5 4.11866V3.88116C4.49856 3.75715 4.4493 3.63848 4.3625 3.54991L1.15 0.343658C1.09132 0.284497 1.01145 0.251221 0.928125 0.251221C0.844801 0.251221 0.764927 0.284497 0.70625 0.343658L0.2625 0.787408C0.20371 0.84501 0.17058 0.923852 0.17058 1.00616C0.17058 1.08846 0.20371 1.16731 0.2625 1.22491L3.04375 3.99991L0.2625 6.77491C0.20334 6.83358 0.170063 6.91346 0.170063 6.99678C0.170063 7.08011 0.20334 7.15998 0.2625 7.21866L0.70625 7.65616C0.764927 7.71532 0.844801 7.74859 0.928125 7.74859C1.01145 7.74859 1.09132 7.71532 1.15 7.65616L4.3625 4.44991Z"/>
        <path d="M4.3625 4.44991C4.45043 4.36208 4.49989 4.24294 4.5 4.11866V3.88116C4.49856 3.75715 4.4493 3.63848 4.3625 3.54991L1.15 0.343658C1.09132 0.284497 1.01145 0.251221 0.928125 0.251221C0.844801 0.251221 0.764927 0.284497 0.70625 0.343658L0.2625 0.787408C0.20371 0.84501 0.17058 0.923852 0.17058 1.00616C0.17058 1.08846 0.20371 1.16731 0.2625 1.22491L3.04375 3.99991L0.2625 6.77491C0.20334 6.83358 0.170063 6.91346 0.170063 6.99678C0.170063 7.08011 0.20334 7.15998 0.2625 7.21866L0.70625 7.65616C0.764927 7.71532 0.844801 7.74859 0.928125 7.74859C1.01145 7.74859 1.09132 7.71532 1.15 7.65616L4.3625 4.44991Z" fill="black" fill-opacity="0.2"/>
    </symbol>

    <symbol id="location" viewBox="0 0 13 18">
        <path d="M6.5 0C2.91027 0 0 2.83297 0 6.32737C0 9.11352 4.1327 15.2334 5.80753 17.5998C6.1854 18.1334 6.8146 18.1334 7.19247 17.5998C8.8673 15.2329 13 9.11395 13 6.32737C13 2.83297 10.0897 0 6.5 0ZM6.5 2.95277C7.41942 2.95277 8.30118 3.30831 8.9513 3.94117C9.60143 4.57403 9.96667 5.43237 9.96667 6.32737C9.96667 6.77053 9.877 7.20935 9.70278 7.61877C9.52857 8.0282 9.27321 8.40021 8.9513 8.71357C8.62939 9.02693 8.24723 9.2755 7.82664 9.44509C7.40604 9.61468 6.95525 9.70197 6.5 9.70197C5.58058 9.70197 4.69882 9.34643 4.0487 8.71357C3.39857 8.08071 3.03333 7.22237 3.03333 6.32737C3.03333 5.43237 3.39857 4.57403 4.0487 3.94117C4.69882 3.30831 5.58058 2.95277 6.5 2.95277Z" fill="#2A3548"/>
    </symbol>

    <symbol id="instagram" viewBox="0 0 18 18">
        <path d="M6.08662 8.99996C6.08662 7.39154 7.39093 6.08731 9.00032 6.08731C10.6097 6.08731 11.9147 7.39154 11.9147 8.99996C11.9147 10.6084 10.6097 11.9126 9.00032 11.9126C7.39093 11.9126 6.08662 10.6084 6.08662 8.99996ZM4.51115 8.99996C4.51115 11.4779 6.52095 13.4864 9.00032 13.4864C11.4797 13.4864 13.4895 11.4779 13.4895 8.99996C13.4895 6.52207 11.4797 4.51348 9.00032 4.51348C6.52095 4.51348 4.51115 6.52207 4.51115 8.99996ZM12.6181 4.33559C12.618 4.54296 12.6795 4.74569 12.7947 4.91816C12.9099 5.09063 13.0737 5.22508 13.2654 5.30451C13.457 5.38394 13.668 5.40479 13.8715 5.36442C14.075 5.32404 14.262 5.22426 14.4087 5.07769C14.5555 4.93111 14.6555 4.74433 14.6961 4.54097C14.7366 4.3376 14.7159 4.12678 14.6366 3.93516C14.5573 3.74355 14.4229 3.57975 14.2504 3.46447C14.0779 3.34919 13.8751 3.28762 13.6676 3.28754H13.6672C13.3891 3.28767 13.1224 3.39811 12.9257 3.59462C12.729 3.79113 12.6184 4.05763 12.6181 4.33559V4.33559ZM5.46835 16.1119C4.61599 16.0731 4.15271 15.9312 3.84483 15.8113C3.43666 15.6525 3.14543 15.4634 2.83923 15.1578C2.53303 14.8522 2.3435 14.5614 2.18529 14.1535C2.06527 13.8459 1.9233 13.3828 1.88455 12.5309C1.84217 11.61 1.8337 11.3333 1.8337 9.00003C1.8337 6.66676 1.84286 6.39087 1.88455 5.46913C1.92337 4.61728 2.06639 4.15504 2.18529 3.84658C2.3442 3.43866 2.53345 3.1476 2.83923 2.84159C3.14501 2.53557 3.43596 2.34615 3.84483 2.18804C4.15257 2.06809 4.61599 1.9262 5.46835 1.88748C6.38988 1.84512 6.6667 1.83666 9.00032 1.83666C11.3339 1.83666 11.611 1.84582 12.5333 1.88748C13.3857 1.92627 13.8482 2.06921 14.1569 2.18804C14.565 2.34615 14.8563 2.53599 15.1625 2.84159C15.4687 3.14718 15.6575 3.43866 15.8164 3.84658C15.9364 4.15413 16.0784 4.61728 16.1171 5.46913C16.1595 6.39087 16.168 6.66676 16.168 9.00003C16.168 11.3333 16.1595 11.6092 16.1171 12.5309C16.0783 13.3828 15.9357 13.8458 15.8164 14.1535C15.6575 14.5614 15.4682 14.8525 15.1625 15.1578C14.8567 15.4631 14.565 15.6525 14.1569 15.8113C13.8491 15.9313 13.3857 16.0732 12.5333 16.1119C11.6118 16.1542 11.335 16.1627 9.00032 16.1627C6.66565 16.1627 6.3896 16.1542 5.46835 16.1119V16.1119ZM5.39596 0.315608C4.46527 0.357966 3.8293 0.505452 3.27391 0.721437C2.69872 0.944482 2.2118 1.24372 1.72523 1.72923C1.23865 2.21474 0.940008 2.70214 0.716829 3.27698C0.500714 3.83239 0.353141 4.46763 0.310757 5.39776C0.267674 6.32936 0.257812 6.6272 0.257812 8.99996C0.257812 11.3727 0.267674 11.6706 0.310757 12.6022C0.353141 13.5324 0.500714 14.1675 0.716829 14.7229C0.940008 15.2974 1.23872 15.7854 1.72523 16.2707C2.21173 16.756 2.69872 17.0548 3.27391 17.2785C3.83035 17.4945 4.46527 17.642 5.39596 17.6843C6.32861 17.7267 6.62614 17.7372 9.00032 17.7372C11.3745 17.7372 11.6725 17.7274 12.6047 17.6843C13.5354 17.642 14.171 17.4945 14.7267 17.2785C15.3016 17.0548 15.7888 16.7562 16.2754 16.2707C16.762 15.7852 17.06 15.2974 17.2838 14.7229C17.4999 14.1675 17.6482 13.5323 17.6899 12.6022C17.7323 11.6699 17.7421 11.3727 17.7421 8.99996C17.7421 6.6272 17.7323 6.32936 17.6899 5.39776C17.6475 4.46756 17.4999 3.83204 17.2838 3.27698C17.06 2.70249 16.7612 2.21551 16.2754 1.72923C15.7896 1.24295 15.3016 0.944482 14.7274 0.721437C14.171 0.505452 13.5354 0.357267 12.6054 0.315608C11.6732 0.27325 11.3752 0.262695 9.00102 0.262695C6.62684 0.262695 6.32861 0.272551 5.39596 0.315608Z" fill="url(#paint0_radial_502_434)"/>
        <path d="M6.08662 8.99996C6.08662 7.39154 7.39093 6.08731 9.00032 6.08731C10.6097 6.08731 11.9147 7.39154 11.9147 8.99996C11.9147 10.6084 10.6097 11.9126 9.00032 11.9126C7.39093 11.9126 6.08662 10.6084 6.08662 8.99996ZM4.51115 8.99996C4.51115 11.4779 6.52095 13.4864 9.00032 13.4864C11.4797 13.4864 13.4895 11.4779 13.4895 8.99996C13.4895 6.52207 11.4797 4.51348 9.00032 4.51348C6.52095 4.51348 4.51115 6.52207 4.51115 8.99996ZM12.6181 4.33559C12.618 4.54296 12.6795 4.74569 12.7947 4.91816C12.9099 5.09063 13.0737 5.22508 13.2654 5.30451C13.457 5.38394 13.668 5.40479 13.8715 5.36442C14.075 5.32404 14.262 5.22426 14.4087 5.07769C14.5555 4.93111 14.6555 4.74433 14.6961 4.54097C14.7366 4.3376 14.7159 4.12678 14.6366 3.93516C14.5573 3.74355 14.4229 3.57975 14.2504 3.46447C14.0779 3.34919 13.8751 3.28762 13.6676 3.28754H13.6672C13.3891 3.28767 13.1224 3.39811 12.9257 3.59462C12.729 3.79113 12.6184 4.05763 12.6181 4.33559V4.33559ZM5.46835 16.1119C4.61599 16.0731 4.15271 15.9312 3.84483 15.8113C3.43666 15.6525 3.14543 15.4634 2.83923 15.1578C2.53303 14.8522 2.3435 14.5614 2.18529 14.1535C2.06527 13.8459 1.9233 13.3828 1.88455 12.5309C1.84217 11.61 1.8337 11.3333 1.8337 9.00003C1.8337 6.66676 1.84286 6.39087 1.88455 5.46913C1.92337 4.61728 2.06639 4.15504 2.18529 3.84658C2.3442 3.43866 2.53345 3.1476 2.83923 2.84159C3.14501 2.53557 3.43596 2.34615 3.84483 2.18804C4.15257 2.06809 4.61599 1.9262 5.46835 1.88748C6.38988 1.84512 6.6667 1.83666 9.00032 1.83666C11.3339 1.83666 11.611 1.84582 12.5333 1.88748C13.3857 1.92627 13.8482 2.06921 14.1569 2.18804C14.565 2.34615 14.8563 2.53599 15.1625 2.84159C15.4687 3.14718 15.6575 3.43866 15.8164 3.84658C15.9364 4.15413 16.0784 4.61728 16.1171 5.46913C16.1595 6.39087 16.168 6.66676 16.168 9.00003C16.168 11.3333 16.1595 11.6092 16.1171 12.5309C16.0783 13.3828 15.9357 13.8458 15.8164 14.1535C15.6575 14.5614 15.4682 14.8525 15.1625 15.1578C14.8567 15.4631 14.565 15.6525 14.1569 15.8113C13.8491 15.9313 13.3857 16.0732 12.5333 16.1119C11.6118 16.1542 11.335 16.1627 9.00032 16.1627C6.66565 16.1627 6.3896 16.1542 5.46835 16.1119V16.1119ZM5.39596 0.315608C4.46527 0.357966 3.8293 0.505452 3.27391 0.721437C2.69872 0.944482 2.2118 1.24372 1.72523 1.72923C1.23865 2.21474 0.940008 2.70214 0.716829 3.27698C0.500714 3.83239 0.353141 4.46763 0.310757 5.39776C0.267674 6.32936 0.257812 6.6272 0.257812 8.99996C0.257812 11.3727 0.267674 11.6706 0.310757 12.6022C0.353141 13.5324 0.500714 14.1675 0.716829 14.7229C0.940008 15.2974 1.23872 15.7854 1.72523 16.2707C2.21173 16.756 2.69872 17.0548 3.27391 17.2785C3.83035 17.4945 4.46527 17.642 5.39596 17.6843C6.32861 17.7267 6.62614 17.7372 9.00032 17.7372C11.3745 17.7372 11.6725 17.7274 12.6047 17.6843C13.5354 17.642 14.171 17.4945 14.7267 17.2785C15.3016 17.0548 15.7888 16.7562 16.2754 16.2707C16.762 15.7852 17.06 15.2974 17.2838 14.7229C17.4999 14.1675 17.6482 13.5323 17.6899 12.6022C17.7323 11.6699 17.7421 11.3727 17.7421 8.99996C17.7421 6.6272 17.7323 6.32936 17.6899 5.39776C17.6475 4.46756 17.4999 3.83204 17.2838 3.27698C17.06 2.70249 16.7612 2.21551 16.2754 1.72923C15.7896 1.24295 15.3016 0.944482 14.7274 0.721437C14.171 0.505452 13.5354 0.357267 12.6054 0.315608C11.6732 0.27325 11.3752 0.262695 9.00102 0.262695C6.62684 0.262695 6.32861 0.272551 5.39596 0.315608Z" fill="url(#paint1_radial_502_434)"/>
        <defs>
            <radialGradient id="paint0_radial_502_434" cx="0" cy="0" r="1" gradientUnits="userSpaceOnUse" gradientTransform="translate(2.5808 17.8198) scale(22.8252 22.8115)">
                <stop offset="0.09" stop-color="#FA8F21"/>
                <stop offset="0.78" stop-color="#D82D7E"/>
            </radialGradient>
            <radialGradient id="paint1_radial_502_434" cx="0" cy="0" r="1" gradientUnits="userSpaceOnUse" gradientTransform="translate(10.8617 18.6026) scale(17.9894 17.9786)">
                <stop offset="0.64" stop-color="#8C3AAA" stop-opacity="0"/>
                <stop offset="1" stop-color="#8C3AAA"/>
            </radialGradient>
        </defs>
    </symbol>

    <symbol id="facebook" viewBox="0 0 10 16">
        <path d="M8.74358 8.99931L9.19952 6.10502H6.39095V4.22373C6.39095 3.43233 6.78306 2.65901 8.03688 2.65901H9.33174V0.194338C8.57768 0.0741985 7.81573 0.00920332 7.05206 -0.00012207C4.74046 -0.00012207 3.23131 1.38823 3.23131 3.89813V6.10502H0.668945V8.99931H3.23131V15.9999H6.39095V8.99931H8.74358Z" fill="#337FFF"/>
    </symbol>

    <symbol id="vk" viewBox="0 0 20 12">
        <path fill-rule="evenodd" clip-rule="evenodd" d="M19.3374 1.16803C19.4727 0.745379 19.3374 0.434814 18.6938 0.434814H16.5656C16.0244 0.434814 15.775 0.703096 15.6397 0.998934C15.6397 0.998934 14.5574 3.4714 13.0242 5.07743C12.5281 5.54232 12.3026 5.69024 12.0321 5.69024C11.8968 5.69024 11.701 5.54232 11.701 5.11971V1.16803C11.701 0.66085 11.5439 0.434814 11.0929 0.434814H7.74855C7.41039 0.434814 7.20701 0.670208 7.20701 0.893298C7.20701 1.37409 7.97357 1.48497 8.05259 2.83744V5.7748C8.05259 6.41881 7.9285 6.53557 7.65793 6.53557C6.93644 6.53557 5.18142 4.05206 4.14053 1.21027C3.93654 0.657932 3.73194 0.434814 3.18802 0.434814H1.05977C0.451699 0.434814 0.330078 0.703096 0.330078 0.998934C0.330078 1.52725 1.0516 4.14764 3.68961 7.61328C5.44827 9.98004 7.92611 11.263 10.1808 11.263C11.5337 11.263 11.701 10.978 11.701 10.4872V8.69843C11.701 8.12852 11.8292 8.01478 12.2576 8.01478C12.5732 8.01478 13.1144 8.1627 14.377 9.30383C15.82 10.6563 16.0579 11.263 16.8696 11.263H18.9979C19.6059 11.263 19.91 10.978 19.7346 10.4157C19.5427 9.85525 18.8537 9.0421 17.9395 8.07817C17.4434 7.52875 16.6994 6.93708 16.4739 6.64117C16.1583 6.26084 16.2484 6.09175 16.4739 5.75366C16.4739 5.75366 19.0669 2.33027 19.3374 1.16803Z" fill="#2787F5"/>
    </symbol>

    <symbol id="tik-tok" viewBox="0 0 16 18">
        <path fill-rule="evenodd" clip-rule="evenodd" d="M11.4136 6.77996C12.4854 7.54186 13.7688 7.94893 15.0838 7.944V5.33794C14.8253 5.33865 14.5675 5.31098 14.315 5.25541V7.33157C12.9971 7.33391 11.7117 6.92217 10.6405 6.1545V11.5143C10.6372 12.3938 10.3961 13.256 9.94249 14.0095C9.48893 14.7631 8.8399 15.3798 8.06423 15.7944C7.28856 16.2089 6.41515 16.4058 5.53664 16.3642C4.65812 16.3226 3.80724 16.044 3.07422 15.558C3.75225 16.2441 4.6186 16.7134 5.56357 16.9068C6.50854 17.1001 7.48963 17.0086 8.3826 16.644C9.27557 16.2794 10.0402 15.658 10.5798 14.8585C11.1194 14.059 11.4096 13.1173 11.4136 12.1528V6.77996ZM12.3648 4.12177C11.8198 3.53103 11.4854 2.77666 11.4136 1.97612V1.63733H10.6839C10.7741 2.1462 10.9704 2.63038 11.26 3.05842C11.5496 3.48646 11.926 3.84876 12.3648 4.12177ZM4.76381 13.4949C4.5109 13.1642 4.35591 12.7691 4.31648 12.3546C4.27705 11.9402 4.35477 11.5229 4.54078 11.1505C4.7268 10.778 5.01364 10.4652 5.36866 10.2477C5.72369 10.0302 6.13264 9.91677 6.54897 9.92026C6.77882 9.92019 7.00733 9.95535 7.22654 10.0245V7.33157C6.97029 7.29764 6.71185 7.28312 6.45341 7.28814V9.38167C5.91965 9.21295 5.34195 9.25132 4.83519 9.48914C4.32843 9.72697 3.92976 10.1468 3.71847 10.6652C3.50717 11.1836 3.49874 11.7625 3.69485 12.2868C3.89095 12.8111 4.27723 13.2424 4.77684 13.4949H4.76381Z" fill="#EE1D52"/>
        <path fill-rule="evenodd" clip-rule="evenodd" d="M10.6407 6.13713C11.712 6.90479 12.9973 7.31653 14.3153 7.3142V5.23804C13.5644 5.07927 12.8823 4.68884 12.3651 4.12177C11.9263 3.84876 11.5498 3.48646 11.2602 3.05842C10.9706 2.63038 10.7744 2.1462 10.6842 1.63733H8.76436V12.1528C8.76257 12.6182 8.61507 13.0714 8.34256 13.4488C8.07005 13.8261 7.68621 14.1086 7.24493 14.2567C6.80366 14.4047 6.32709 14.4109 5.88214 14.2743C5.4372 14.1376 5.0462 13.8651 4.76406 13.4949C4.31691 13.2693 3.95882 12.8996 3.74755 12.4455C3.53629 11.9914 3.48417 11.4794 3.59961 10.992C3.71505 10.5047 3.99131 10.0704 4.38382 9.75935C4.77634 9.44827 5.26221 9.2785 5.76305 9.27743C5.99284 9.27816 6.22123 9.3133 6.44062 9.38167V7.28814C5.49271 7.31089 4.57206 7.60993 3.7917 8.14853C3.01134 8.68714 2.40522 9.44188 2.04775 10.3201C1.69028 11.1983 1.59702 12.1618 1.7794 13.0923C1.96179 14.0228 2.41189 14.8798 3.07446 15.558C3.80763 16.0475 4.65985 16.329 5.54034 16.3724C6.42083 16.4158 7.29662 16.2196 8.0744 15.8047C8.85219 15.3897 9.50285 14.7715 9.95707 14.016C10.4113 13.2605 10.6521 12.3959 10.6538 11.5143L10.6407 6.13713Z" fill="#2A3548"/>
        <path fill-rule="evenodd" clip-rule="evenodd" d="M14.3151 5.2378V4.6775C13.6255 4.68043 12.9492 4.48764 12.3649 4.12154C12.8807 4.69023 13.5634 5.08099 14.3151 5.2378ZM10.684 1.63709C10.684 1.53719 10.6536 1.43295 10.6405 1.33305V0.994263H7.99103V11.5141C7.98873 12.1031 7.75282 12.6672 7.33508 13.0825C6.91734 13.4978 6.3519 13.7304 5.76285 13.7292C5.41601 13.731 5.07368 13.6506 4.76386 13.4947C5.04601 13.8649 5.437 14.1374 5.88194 14.274C6.32689 14.4106 6.80346 14.4045 7.24474 14.2565C7.68601 14.1084 8.06985 13.8259 8.34236 13.4485C8.61487 13.0712 8.76237 12.618 8.76416 12.1525V1.63709H10.684ZM6.44042 7.28356V6.68851C5.35017 6.5404 4.2419 6.76592 3.29623 7.32832C2.35056 7.89072 1.62325 8.75683 1.23284 9.7855C0.842433 10.8142 0.811939 11.9447 1.14633 12.993C1.48072 14.0412 2.16028 14.9452 3.07426 15.5578C2.41671 14.878 1.9714 14.0213 1.79274 13.0925C1.61407 12.1637 1.70979 11.203 2.06819 10.3277C2.4266 9.45245 3.03217 8.70051 3.81093 8.16376C4.5897 7.62701 5.50793 7.3287 6.45345 7.30527L6.44042 7.28356Z" fill="#69C9D0"/>
    </symbol>

    <symbol id="youtube" viewBox="0 0 19 14">
        <path d="M18.1221 2.59864C17.9197 1.81319 17.3209 1.19355 16.5592 0.981189C15.1818 0.600098 9.65531 0.600098 9.65531 0.600098C9.65531 0.600098 4.13168 0.600098 2.75148 0.981189C1.9925 1.19064 1.39376 1.81028 1.18855 2.59864C0.820312 4.0241 0.820312 7.0001 0.820312 7.0001C0.820312 7.0001 0.820312 9.9761 1.18855 11.4016C1.39095 12.187 1.98969 12.8066 2.75148 13.019C4.13168 13.4001 9.65531 13.4001 9.65531 13.4001C9.65531 13.4001 15.1818 13.4001 16.5592 13.019C17.3181 12.8096 17.9169 12.1899 18.1221 11.4016C18.4903 9.9761 18.4903 7.0001 18.4903 7.0001C18.4903 7.0001 18.4903 4.0241 18.1221 2.59864Z" fill="#FF3000"/>
        <path d="M7.89 9.74337L12.4804 7.0001L7.89 4.25683V9.74337Z" fill="white"/>
    </symbol>

    <symbol id="twitter" viewBox="0 0 17 14">
        <path d="M16.8467 1.88517C16.3019 2.11257 15.729 2.27091 15.1424 2.35629C15.4167 2.3107 15.8202 1.83198 15.9809 1.63822C16.2249 1.34595 16.4109 1.01229 16.5294 0.654203C16.5294 0.627608 16.5568 0.589615 16.5294 0.570619C16.5156 0.563303 16.5001 0.559469 16.4843 0.559469C16.4686 0.559469 16.4531 0.563303 16.4393 0.570619C15.8023 0.905117 15.1243 1.16042 14.4215 1.33048C14.397 1.33773 14.3709 1.33839 14.3461 1.33236C14.3212 1.32634 14.2985 1.31387 14.2804 1.29628C14.2257 1.23311 14.1668 1.17346 14.1041 1.11772C13.8175 0.868654 13.4922 0.664806 13.1403 0.513629C12.6653 0.324644 12.1521 0.242798 11.6397 0.274274C11.1425 0.304724 10.657 0.434048 10.2135 0.654203C9.77682 0.886311 9.393 1.20164 9.08514 1.58123C8.76131 1.97193 8.52752 2.42535 8.39949 2.91098C8.29392 3.37292 8.28194 3.85035 8.36423 4.31672C8.36423 4.39651 8.36423 4.40791 8.2937 4.39651C5.50015 3.99758 3.20811 3.03636 1.33529 0.973344C1.25302 0.882161 1.20992 0.882161 1.14331 0.973344C0.328362 2.17392 0.724082 4.07357 1.74277 5.01199C1.8799 5.13737 2.02095 5.25895 2.16983 5.37293C1.70277 5.34077 1.24712 5.21804 0.829869 5.01199C0.751508 4.9626 0.70841 4.9892 0.704492 5.08038C0.693385 5.2068 0.693385 5.3339 0.704492 5.46031C0.786244 6.06614 1.03246 6.64005 1.41796 7.12335C1.80347 7.60665 2.31442 7.98199 2.89858 8.211C3.04099 8.27015 3.18937 8.31471 3.34132 8.34398C2.90894 8.42652 2.46548 8.43936 2.02878 8.38197C1.93475 8.36297 1.89949 8.41236 1.93475 8.49975C2.5107 10.0195 3.76055 10.483 4.67737 10.7413C4.80274 10.7603 4.92812 10.7603 5.06917 10.7907C5.06917 10.7907 5.06917 10.7907 5.04566 10.8135C4.77532 11.2922 3.68219 11.6152 3.18068 11.7823C2.2653 12.1012 1.28934 12.223 0.320526 12.1395C0.167723 12.1167 0.132461 12.1205 0.0932805 12.1395C0.0541002 12.1585 0.0932805 12.2003 0.136379 12.2383C0.33228 12.3636 0.528181 12.4738 0.731918 12.5802C1.33845 12.901 1.97967 13.1558 2.64391 13.34C6.08394 14.2595 9.95494 13.5832 12.5369 11.0947C14.5665 9.14183 15.2795 6.44813 15.2795 3.75063C15.2795 3.64805 15.4088 3.58726 15.4833 3.53407C15.9967 3.14612 16.4494 2.68796 16.8272 2.17392C16.8926 2.0973 16.9261 1.99973 16.9212 1.90037C16.9212 1.84338 16.9212 1.85478 16.8467 1.88517Z" fill="#33CCFF"/>
    </symbol>

    <symbol id="btn-category" viewBox="0 0 16 16">
            <circle cx="2" cy="3" r="1" fill="white"/>
            <line x1="6" y1="3" x2="15" y2="3" stroke="white" stroke-width="2" stroke-linecap="round"/>
            <circle cx="2" cy="8" r="1" fill="white"/>
            <line x1="6" y1="8" x2="15" y2="8" stroke="white" stroke-width="2" stroke-linecap="round"/>
            <circle cx="2" cy="13" r="1" fill="white"/>
            <line x1="6" y1="13" x2="10" y2="13" stroke="white" stroke-width="2" stroke-linecap="round"/>
    </symbol>

    <symbol id="check" viewBox="0 0 14 10">
            <path d="M12.9077 0.399523C13.1891 0.649695 13.2145 1.08065 12.9643 1.3621L5.69156 9.54391C5.56217 9.68947 5.37671 9.77276 5.18196 9.77276C4.98721 9.77276 4.80175 9.68947 4.67236 9.54391L1.036 5.453C0.785826 5.17156 0.811177 4.7406 1.09262 4.49043C1.37406 4.24026 1.80502 4.26561 2.05519 4.54705L5.18196 8.06467L11.9451 0.456145C12.1953 0.174702 12.6262 0.149352 12.9077 0.399523Z" fill="white"/>
    </symbol>

    <symbol id="cross-btn" viewBox="0 0 7 7">
            <path d="M0.15969 0.159691C0.372611 -0.0532304 0.717712 -0.0532304 0.930519 0.159691L3.5 2.72919L6.06948 0.159691C6.2824 -0.0532304 6.6275 -0.0532304 6.84031 0.159691C7.05323 0.372613 7.05323 0.717716 6.84031 0.930525L4.27083 3.50002L6.84031 6.06952C7.05323 6.28244 7.05323 6.62755 6.84031 6.84036C6.62739 7.05328 6.28229 7.05315 6.06948 6.84036L3.5 4.27086L0.930519 6.84036C0.717599 7.05315 0.372497 7.05315 0.15969 6.84036C-0.0532301 6.62743 -0.0532301 6.28233 0.15969 6.06952L2.72917 3.50002L0.15969 0.930525C-0.0532301 0.717603 -0.0532301 0.372499 0.15969 0.159691Z" fill="#797979"/>
    </symbol>

    <symbol id="category-open" viewBox="0 0 13 13">
            <line x1="1" y1="11.5858" x2="11.5858" y2="1"  stroke-width="2" stroke-linecap="round"/>
            <line x1="1" y1="-1" x2="15.9706" y2="-1" transform="matrix(-0.707107 -0.707107 -0.707107 0.707107 12 13)" stroke-width="2" stroke-linecap="round"/>
    </symbol>

    <symbol id="filter-btn" viewBox="0 0 11 12">
        <path fill-rule="evenodd" clip-rule="evenodd" d="M2.16667 0C1.98986 0 1.82029 0.0702379 1.69527 0.195262C1.57024 0.320286 1.50001 0.489856 1.50001 0.666667V1.44667C1.10965 1.5844 0.771628 1.83983 0.532532 2.17773C0.293436 2.51564 0.165039 2.91939 0.165039 3.33333C0.165039 3.74728 0.293436 4.15103 0.532532 4.48893C0.771628 4.82684 1.10965 5.08227 1.50001 5.22V11.3333C1.50001 11.5101 1.57024 11.6797 1.69527 11.8047C1.82029 11.9298 1.98986 12 2.16667 12C2.34348 12 2.51305 11.9298 2.63808 11.8047C2.7631 11.6797 2.83334 11.5101 2.83334 11.3333V5.22C3.22369 5.08227 3.56172 4.82684 3.80081 4.48893C4.03991 4.15103 4.16831 3.74728 4.16831 3.33333C4.16831 2.91939 4.03991 2.51564 3.80081 2.17773C3.56172 1.83983 3.22369 1.5844 2.83334 1.44667V0.666667C2.83334 0.489856 2.7631 0.320286 2.63808 0.195262C2.51305 0.0702379 2.34348 0 2.16667 0ZM2.83334 3.33333C2.83334 3.51014 2.7631 3.67971 2.63808 3.80474C2.51305 3.92976 2.34348 4 2.16667 4C1.98986 4 1.82029 3.92976 1.69527 3.80474C1.57024 3.67971 1.50001 3.51014 1.50001 3.33333C1.50001 3.15652 1.57024 2.98695 1.69527 2.86193C1.82029 2.7369 1.98986 2.66667 2.16667 2.66667C2.34348 2.66667 2.51305 2.7369 2.63808 2.86193C2.7631 2.98695 2.83334 3.15652 2.83334 3.33333ZM8.83334 0C8.65653 0 8.48696 0.0702379 8.36193 0.195262C8.23691 0.320286 8.16667 0.489856 8.16667 0.666667V6.11333C7.77632 6.25107 7.43829 6.50649 7.1992 6.8444C6.9601 7.18231 6.83171 7.58606 6.83171 8C6.83171 8.41394 6.9601 8.81769 7.1992 9.1556C7.43829 9.49351 7.77632 9.74893 8.16667 9.88667V11.3333C8.16667 11.5101 8.23691 11.6797 8.36193 11.8047C8.48696 11.9298 8.65653 12 8.83334 12C9.01015 12 9.17972 11.9298 9.30474 11.8047C9.42977 11.6797 9.50001 11.5101 9.50001 11.3333V9.88667C9.89036 9.74893 10.2284 9.49351 10.4675 9.1556C10.7066 8.81769 10.835 8.41394 10.835 8C10.835 7.58606 10.7066 7.18231 10.4675 6.8444C10.2284 6.50649 9.89036 6.25107 9.50001 6.11333V0.666667C9.50001 0.489856 9.42977 0.320286 9.30474 0.195262C9.17972 0.0702379 9.01015 0 8.83334 0ZM9.50001 8C9.50001 8.17681 9.42977 8.34638 9.30474 8.47141C9.17972 8.59643 9.01015 8.66667 8.83334 8.66667C8.65653 8.66667 8.48696 8.59643 8.36193 8.47141C8.23691 8.34638 8.16667 8.17681 8.16667 8C8.16667 7.82319 8.23691 7.65362 8.36193 7.5286C8.48696 7.40357 8.65653 7.33333 8.83334 7.33333C9.01015 7.33333 9.17972 7.40357 9.30474 7.5286C9.42977 7.65362 9.50001 7.82319 9.50001 8Z" fill="#797979"/>
    </symbol>

    <symbol id="cross-popup" viewBox="0 0 12 12">
        <path d="M0.273755 0.273757C0.638761 -0.0912522 1.23036 -0.0912522 1.59518 0.273757L6 4.67861L10.4048 0.273757C10.7698 -0.0912522 11.3614 -0.0912522 11.7262 0.273757C12.0913 0.638765 12.0913 1.23037 11.7262 1.59519L7.32142 6.00004L11.7262 10.4049C12.0913 10.7699 12.0913 11.3615 11.7262 11.7263C11.3612 12.0913 10.7696 12.0911 10.4048 11.7263L6 7.32147L1.59518 11.7263C1.23017 12.0911 0.638566 12.0911 0.273755 11.7263C-0.0912516 11.3613 -0.0912516 10.7697 0.273755 10.4049L4.67858 6.00004L0.273755 1.59519C-0.0912516 1.23018 -0.0912516 0.638571 0.273755 0.273757Z" fill="#2A3548"/>
    </symbol>

    <symbol id="sign-in-mobile" viewBox="0 0 17 17">
            <path d="M8.50367 7.88578H8.50377C9.45102 7.88481 10.3596 7.51705 11.03 6.86256C11.7007 6.20787 12.0782 5.31981 12.0792 4.39294V4.39283C12.0792 3.4657 11.7019 2.57699 11.0311 1.92215C10.3604 1.26739 9.45117 0.9 8.50367 0.9C7.55617 0.9 6.64694 1.26739 5.97623 1.92215C5.30544 2.57699 4.92816 3.4657 4.92816 4.39283C4.92816 5.31996 5.30544 6.20867 5.97623 6.86351C6.64694 7.51826 7.55613 7.88578 8.50367 7.88578ZM10.3729 2.57132L10.3729 2.57133C10.8684 3.0549 11.1466 3.71005 11.1475 4.39285C11.1475 5.07591 10.8695 5.73153 10.374 6.21529C9.87832 6.69905 9.20564 6.97129 8.50367 6.97129C7.8017 6.97129 7.12902 6.69904 6.63335 6.21529C6.13777 5.7315 5.85982 5.07582 5.85982 4.39271C5.85982 3.7096 6.13777 3.05404 6.63335 2.57025C7.12902 2.08637 7.80169 1.81413 8.50367 1.81413V1.71413L8.50354 1.81413C9.20518 1.81504 9.87744 2.08766 10.3729 2.57132ZM13.0336 11.0228C14.238 12.1113 14.9873 13.594 15.1406 15.1858H1.87016C2.02352 13.594 2.77275 12.1113 3.97719 11.0228L3.91015 10.9486L3.9772 11.0228C5.20884 9.9097 6.8261 9.29101 8.50539 9.29101C10.1847 9.29101 11.8018 9.90969 13.0336 11.0228ZM1.36589 16.1H15.6339H15.6341C15.7569 16.1 15.8752 16.0524 15.9627 15.9669C16.0503 15.8814 16.1 15.7648 16.1 15.6428C16.1 13.6738 15.2987 11.786 13.8732 10.3944C12.4478 9.00277 10.5148 8.22153 8.5 8.22153C6.48519 8.22153 4.55233 9.0028 3.12683 10.3944C1.70134 11.7859 0.9 13.6738 0.9 15.6428C0.9 15.8976 1.11097 16.1 1.36589 16.1Z" fill="#059EA3" stroke="#059EA3" stroke-width="0.2"/>
    </symbol>
</svg>







