<svg display="none" xmlns="http://www.w3.org/2000/svg">
    <symbol id="search" viewBox="0 0 16 16">
        <path d="M15.7372 14.4753L12.7159 11.463C13.6907 10.2211 14.2196 8.68756 14.2176 7.10882C14.2176 5.70283 13.8007 4.32841 13.0196 3.15937C12.2385 1.99033 11.1282 1.07918 9.82925 0.54113C8.53028 0.00308012 7.10094 -0.137698 5.72196 0.136597C4.34299 0.410893 3.07631 1.08794 2.08213 2.08213C1.08794 3.07631 0.410893 4.34299 0.136597 5.72196C-0.137698 7.10094 0.00308012 8.53028 0.54113 9.82925C1.07918 11.1282 1.99033 12.2385 3.15937 13.0196C4.32841 13.8007 5.70283 14.2176 7.10882 14.2176C8.68756 14.2196 10.2211 13.6907 11.463 12.7159L14.4753 15.7372C14.5579 15.8204 14.6562 15.8865 14.7645 15.9317C14.8728 15.9768 14.9889 16 15.1062 16C15.2236 16 15.3397 15.9768 15.448 15.9317C15.5563 15.8865 15.6545 15.8204 15.7372 15.7372C15.8204 15.6545 15.8865 15.5563 15.9317 15.448C15.9768 15.3397 16 15.2236 16 15.1062C16 14.9889 15.9768 14.8728 15.9317 14.7645C15.8865 14.6562 15.8204 14.5579 15.7372 14.4753ZM1.77721 7.10882C1.77721 6.05433 2.0899 5.02352 2.67575 4.14674C3.26159 3.26996 4.09428 2.58659 5.0685 2.18305C6.04273 1.77952 7.11474 1.67393 8.14897 1.87965C9.1832 2.08538 10.1332 2.59316 10.8788 3.3388C11.6245 4.08444 12.1323 5.03444 12.338 6.06868C12.5437 7.10291 12.4381 8.17492 12.0346 9.14914C11.6311 10.1234 10.9477 10.9561 10.0709 11.5419C9.19413 12.1277 8.16332 12.4404 7.10882 12.4404C5.69479 12.4404 4.33867 11.8787 3.3388 10.8788C2.33893 9.87897 1.77721 8.52285 1.77721 7.10882Z" fill="#858585"/>
    </symbol>

    <symbol id="plus" viewBox="0 0 11 12">
        <path d="M5.5 0.5C4.99374 0.5 4.5834 0.910337 4.5834 1.4166V5.0834H0.916598C0.410337 5.0834 0 5.49374 0 6C0 6.50626 0.410337 6.9166 0.916598 6.9166H4.5834V10.5834C4.5834 11.0897 4.99374 11.5 5.5 11.5C6.00626 11.5 6.4166 11.0897 6.4166 10.5834V6.9166H10.0834C10.5897 6.9166 11 6.50626 11 6C11 5.49374 10.5897 5.0834 10.0834 5.0834H6.4166V1.4166C6.4166 0.910337 6.00626 0.5 5.5 0.5Z" fill="#2A3548"/>
    </symbol>

    <symbol id="search-white" viewBox="0 0 16 16">
        <path d="M15.7372 14.4753L12.7159 11.463C13.6907 10.2211 14.2196 8.68756 14.2176 7.10882C14.2176 5.70283 13.8007 4.32841 13.0196 3.15937C12.2385 1.99033 11.1282 1.07918 9.82925 0.54113C8.53028 0.00308012 7.10094 -0.137698 5.72196 0.136597C4.34299 0.410893 3.07631 1.08794 2.08213 2.08213C1.08794 3.07631 0.410893 4.34299 0.136597 5.72196C-0.137698 7.10094 0.00308012 8.53028 0.54113 9.82925C1.07918 11.1282 1.99033 12.2385 3.15937 13.0196C4.32841 13.8007 5.70283 14.2176 7.10882 14.2176C8.68756 14.2196 10.2211 13.6907 11.463 12.7159L14.4753 15.7372C14.5579 15.8204 14.6562 15.8865 14.7645 15.9317C14.8728 15.9768 14.9889 16 15.1062 16C15.2236 16 15.3397 15.9768 15.448 15.9317C15.5563 15.8865 15.6545 15.8204 15.7372 15.7372C15.8204 15.6545 15.8865 15.5563 15.9317 15.448C15.9768 15.3397 16 15.2236 16 15.1062C16 14.9889 15.9768 14.8728 15.9317 14.7645C15.8865 14.6562 15.8204 14.5579 15.7372 14.4753V14.4753ZM1.77721 7.10882C1.77721 6.05433 2.0899 5.02352 2.67575 4.14674C3.26159 3.26996 4.09428 2.58659 5.0685 2.18305C6.04273 1.77952 7.11474 1.67393 8.14897 1.87965C9.1832 2.08538 10.1332 2.59316 10.8788 3.3388C11.6245 4.08444 12.1323 5.03444 12.338 6.06868C12.5437 7.10291 12.4381 8.17492 12.0346 9.14914C11.6311 10.1234 10.9477 10.9561 10.0709 11.5419C9.19413 12.1277 8.16332 12.4404 7.10882 12.4404C5.69479 12.4404 4.33867 11.8787 3.3388 10.8788C2.33893 9.87897 1.77721 8.52285 1.77721 7.10882Z" fill="white"/>
    </symbol>

    <symbol id="arrow-prev" viewBox="0 0 5 8">
        <path d="M0.6375 4.44991C0.549567 4.36208 0.500109 4.24294 0.5 4.11866V3.88116C0.50144 3.75715 0.550698 3.63848 0.6375 3.54991L3.85 0.343658C3.90868 0.284497 3.98855 0.251221 4.07188 0.251221C4.1552 0.251221 4.23507 0.284497 4.29375 0.343658L4.7375 0.787408C4.79629 0.84501 4.82942 0.923852 4.82942 1.00616C4.82942 1.08846 4.79629 1.16731 4.7375 1.22491L1.95625 3.99991L4.7375 6.77491C4.79666 6.83358 4.82994 6.91346 4.82994 6.99678C4.82994 7.08011 4.79666 7.15998 4.7375 7.21866L4.29375 7.65616C4.23507 7.71532 4.1552 7.74859 4.07188 7.74859C3.98855 7.74859 3.90868 7.71532 3.85 7.65616L0.6375 4.44991Z"/>
        <path d="M0.6375 4.44991C0.549567 4.36208 0.500109 4.24294 0.5 4.11866V3.88116C0.50144 3.75715 0.550698 3.63848 0.6375 3.54991L3.85 0.343658C3.90868 0.284497 3.98855 0.251221 4.07188 0.251221C4.1552 0.251221 4.23507 0.284497 4.29375 0.343658L4.7375 0.787408C4.79629 0.84501 4.82942 0.923852 4.82942 1.00616C4.82942 1.08846 4.79629 1.16731 4.7375 1.22491L1.95625 3.99991L4.7375 6.77491C4.79666 6.83358 4.82994 6.91346 4.82994 6.99678C4.82994 7.08011 4.79666 7.15998 4.7375 7.21866L4.29375 7.65616C4.23507 7.71532 4.1552 7.74859 4.07188 7.74859C3.98855 7.74859 3.90868 7.71532 3.85 7.65616L0.6375 4.44991Z" fill="black" fill-opacity="0.2"/>
    </symbol>

    <symbol id="arrow-next" viewBox="0 0 5 8">
        <path d="M4.3625 4.44991C4.45043 4.36208 4.49989 4.24294 4.5 4.11866V3.88116C4.49856 3.75715 4.4493 3.63848 4.3625 3.54991L1.15 0.343658C1.09132 0.284497 1.01145 0.251221 0.928125 0.251221C0.844801 0.251221 0.764927 0.284497 0.70625 0.343658L0.2625 0.787408C0.20371 0.84501 0.17058 0.923852 0.17058 1.00616C0.17058 1.08846 0.20371 1.16731 0.2625 1.22491L3.04375 3.99991L0.2625 6.77491C0.20334 6.83358 0.170063 6.91346 0.170063 6.99678C0.170063 7.08011 0.20334 7.15998 0.2625 7.21866L0.70625 7.65616C0.764927 7.71532 0.844801 7.74859 0.928125 7.74859C1.01145 7.74859 1.09132 7.71532 1.15 7.65616L4.3625 4.44991Z"/>
        <path d="M4.3625 4.44991C4.45043 4.36208 4.49989 4.24294 4.5 4.11866V3.88116C4.49856 3.75715 4.4493 3.63848 4.3625 3.54991L1.15 0.343658C1.09132 0.284497 1.01145 0.251221 0.928125 0.251221C0.844801 0.251221 0.764927 0.284497 0.70625 0.343658L0.2625 0.787408C0.20371 0.84501 0.17058 0.923852 0.17058 1.00616C0.17058 1.08846 0.20371 1.16731 0.2625 1.22491L3.04375 3.99991L0.2625 6.77491C0.20334 6.83358 0.170063 6.91346 0.170063 6.99678C0.170063 7.08011 0.20334 7.15998 0.2625 7.21866L0.70625 7.65616C0.764927 7.71532 0.844801 7.74859 0.928125 7.74859C1.01145 7.74859 1.09132 7.71532 1.15 7.65616L4.3625 4.44991Z" fill="black" fill-opacity="0.2"/>
    </symbol>

    <symbol id="location" viewBox="0 0 13 18">
        <path d="M6.5 0C2.91027 0 0 2.83297 0 6.32737C0 9.11352 4.1327 15.2334 5.80753 17.5998C6.1854 18.1334 6.8146 18.1334 7.19247 17.5998C8.8673 15.2329 13 9.11395 13 6.32737C13 2.83297 10.0897 0 6.5 0ZM6.5 2.95277C7.41942 2.95277 8.30118 3.30831 8.9513 3.94117C9.60143 4.57403 9.96667 5.43237 9.96667 6.32737C9.96667 6.77053 9.877 7.20935 9.70278 7.61877C9.52857 8.0282 9.27321 8.40021 8.9513 8.71357C8.62939 9.02693 8.24723 9.2755 7.82664 9.44509C7.40604 9.61468 6.95525 9.70197 6.5 9.70197C5.58058 9.70197 4.69882 9.34643 4.0487 8.71357C3.39857 8.08071 3.03333 7.22237 3.03333 6.32737C3.03333 5.43237 3.39857 4.57403 4.0487 3.94117C4.69882 3.30831 5.58058 2.95277 6.5 2.95277Z" fill="#2A3548"/>
    </symbol>
</svg>

