<?xml version="1.0" standalone="no"?>
<!DOCTYPE svg PUBLIC "-//W3C//DTD SVG 20010904//EN"
 "http://www.w3.org/TR/2001/REC-SVG-20010904/DTD/svg10.dtd">
<svg version="1.0" xmlns="http://www.w3.org/2000/svg"
 width="3170.000000pt" height="657.000000pt" viewBox="0 0 3170.000000 657.000000"
 preserveAspectRatio="xMidYMid meet">

<g transform="translate(0.000000,657.000000) scale(0.100000,-0.100000)"
fill="#FF5000" stroke="none">
<path d="M605 6560 c-235 -35 -431 -180 -536 -396 -74 -153 -69 75 -69 -2885
0 -2608 0 -2667 19 -2742 52 -203 188 -370 376 -463 49 -24 122 -51 162 -59
63 -13 1895 -15 15325 -13 14815 3 15255 4 15308 22 138 46 225 101 321 203
75 79 118 149 157 255 l27 73 3 2695 c3 3031 10 2763 -75 2932 -101 201 -303
345 -530 378 -81 11 -30410 12 -30488 0z m21688 -589 c60 -250 190 -351 452
-351 250 0 377 95 445 334 11 38 21 71 24 73 5 5 598 -147 609 -156 11 -11
-40 -176 -79 -255 -137 -273 -426 -458 -799 -511 -191 -28 -469 -15 -648 30
-283 71 -532 258 -647 485 -33 66 -84 224 -78 242 3 8 136 44 349 95 189 45
347 82 350 82 3 1 13 -30 22 -68z m-16087 -1116 c251 -33 455 -103 642 -222
306 -194 524 -525 612 -929 77 -354 62 -772 -38 -1096 -158 -506 -524 -846
-1037 -963 -264 -60 -631 -60 -895 1 -524 119 -896 481 -1045 1014 -105 378
-97 869 21 1229 163 497 526 829 1024 937 204 44 512 57 716 29z m3664 -30
c179 -26 360 -78 513 -147 50 -23 66 -35 62 -47 -2 -9 -47 -157 -100 -330 -52
-173 -97 -316 -99 -318 -2 -2 -24 6 -50 17 -147 62 -329 99 -531 107 -360 13
-591 -92 -718 -327 -117 -217 -150 -598 -76 -889 39 -157 144 -328 255 -415
161 -126 354 -173 639 -156 189 12 299 41 463 124 52 26 74 33 77 24 11 -35
185 -608 185 -611 0 -9 -122 -77 -207 -115 -160 -72 -334 -119 -549 -147 -140
-19 -439 -21 -569 -5 -326 40 -574 151 -767 341 -289 285 -420 682 -419 1274
0 547 127 936 400 1229 221 237 491 363 871 405 117 13 492 5 620 -14z m5985
15 c560 -65 889 -371 1009 -940 66 -309 74 -755 20 -1060 -113 -637 -489
-1075 -1043 -1216 -191 -49 -461 -67 -651 -44 -98 12 -267 57 -369 100 l-71
29 0 -610 0 -609 -415 0 -415 0 0 2135 0 2135 298 0 297 0 49 -190 50 -190 35
0 c31 1 42 8 81 56 70 86 199 195 307 258 213 125 522 180 818 146z m3315 -1
c236 -21 417 -71 601 -166 457 -235 730 -700 768 -1311 22 -350 -29 -681 -146
-950 -205 -468 -604 -750 -1161 -822 -108 -14 -405 -14 -518 0 -650 81 -1088
467 -1244 1095 -74 300 -81 667 -19 985 110 555 462 958 964 1103 237 69 490
91 755 66z m10825 -43 c258 -47 433 -131 559 -267 128 -138 192 -283 238 -539
18 -103 15 -582 -5 -860 -45 -601 -28 -990 55 -1310 16 -63 32 -125 35 -138
l5 -22 -339 0 -339 0 -42 148 c-97 331 -89 312 -125 312 -26 -1 -39 -9 -67
-46 -59 -77 -210 -213 -311 -280 -191 -127 -363 -174 -639 -174 -89 0 -183 6
-241 16 -454 78 -757 404 -776 837 -22 474 198 823 622 984 181 70 412 109
690 120 172 6 299 -3 513 -38 73 -12 135 -20 138 -17 13 14 23 201 14 275 -17
155 -72 246 -175 295 -242 113 -805 58 -1240 -122 -55 -23 -107 -44 -116 -46
-12 -4 -36 54 -122 303 -59 169 -107 311 -107 315 0 10 51 31 200 82 278 96
595 156 990 190 113 10 498 -2 585 -18z m-26155 -1561 l0 -1545 -415 0 -415 0
0 1175 0 1175 -560 0 -560 0 0 -1175 0 -1175 -420 0 -420 0 0 1545 0 1545
1395 0 1395 0 0 -1545z m9620 1155 l0 -370 -480 0 -480 0 0 -1180 0 -1180
-435 0 -435 0 0 1180 0 1180 -480 0 -480 0 0 370 0 370 1395 0 1395 0 0 -370z
m8580 -377 c0 -661 -5 -887 -25 -1080 l-5 -53 32 0 c32 0 39 9 174 209 125
187 206 287 755 940 l614 730 253 1 252 0 0 -1550 0 -1550 -415 0 -415 0 0
743 c0 547 4 796 15 946 8 113 13 207 11 208 -2 2 -81 -106 -177 -239 -156
-219 -234 -313 -788 -951 l-616 -707 -247 0 -248 0 0 1550 0 1550 415 0 415 0
0 -747z m3720 81 c0 -529 3 -665 13 -661 141 59 233 100 242 107 5 4 186 281
400 614 l390 606 448 0 c356 0 447 -3 441 -12 -5 -7 -58 -83 -119 -168 -61
-85 -232 -328 -379 -540 -148 -212 -278 -396 -290 -409 -11 -13 -104 -79 -205
-146 l-183 -123 38 -24 c22 -14 113 -70 204 -126 l165 -101 94 -153 c52 -84
203 -324 336 -533 275 -431 475 -752 475 -760 0 -3 -215 -5 -478 -5 l-479 0
-417 645 -418 645 -139 0 -139 0 0 -645 0 -645 -415 0 -415 0 0 1550 0 1550
415 0 415 0 0 -666z"/>
<path d="M5781 4160 c-146 -31 -251 -89 -344 -189 -141 -153 -207 -390 -207
-738 1 -432 143 -740 400 -867 106 -53 148 -61 325 -60 146 0 167 3 240 27
306 101 455 396 455 897 0 508 -152 802 -470 910 -53 18 -93 23 -210 26 -80 2
-165 -1 -189 -6z"/>
<path d="M15235 4135 c-215 -40 -355 -167 -452 -410 l-33 -85 0 -600 0 -600
43 -31 c57 -43 168 -95 247 -116 51 -14 103 -18 240 -18 152 0 185 3 255 23
280 81 435 276 500 632 23 124 32 487 15 601 -50 342 -182 528 -423 596 -77
21 -295 26 -392 8z"/>
<path d="M18805 4134 c-38 -8 -107 -33 -153 -54 -260 -123 -382 -394 -384
-850 -1 -364 74 -602 242 -771 132 -132 262 -182 475 -182 180 1 302 36 418
122 197 145 302 472 284 886 -23 514 -210 796 -568 854 -88 15 -230 12 -314
-5z"/>
<path d="M29333 3090 c-175 -18 -287 -62 -371 -147 -76 -76 -102 -137 -102
-243 0 -218 98 -351 295 -399 68 -17 244 -15 335 4 159 32 327 148 435 300
l45 63 0 180 c0 102 -4 183 -9 187 -6 3 -75 16 -155 30 -165 28 -352 38 -473
25z"/>
</g>
</svg>
